<?xml version="1.0" standalone="no"?>
<!DOCTYPE svg PUBLIC "-//W3C//DTD SVG 20010904//EN"
 "http://www.w3.org/TR/2001/REC-SVG-20010904/DTD/svg10.dtd">
<svg version="1.0" xmlns="http://www.w3.org/2000/svg"
 width="556.000000pt" height="556.000000pt" viewBox="0 0 556.000000 556.000000"
 preserveAspectRatio="xMidYMid meet">
<metadata>
Created by potrace 1.11, written by Peter Selinger 2001-2013
</metadata>
<g transform="translate(0.000000,556.000000) scale(0.100000,-0.100000)"
fill="#000000" stroke="none">
<path d="M2528 5549 c-264 -29 -502 -83 -713 -161 -129 -47 -314 -135 -435
-206 -671 -395 -1140 -1037 -1313 -1797 -15 -64 -36 -187 -52 -305 -11 -72
-13 -468 -4 -555 48 -455 175 -833 414 -1224 186 -304 502 -628 815 -835 296
-196 640 -341 960 -405 112 -23 115 -23 225 -37 28 -4 71 -10 98 -14 51 -8
509 -6 542 3 11 2 47 8 80 11 33 4 83 11 110 16 125 24 213 44 250 55 22 7 74
23 115 35 250 75 566 234 790 398 462 339 797 787 991 1325 40 110 113 396
123 477 2 25 10 79 17 120 20 129 19 505 -1 660 -19 138 -21 152 -41 249 -52
261 -172 574 -304 797 -25 42 -45 77 -45 80 0 5 -63 97 -71 104 -3 3 -12 16
-19 30 -25 48 -199 256 -296 355 -461 467 -1015 736 -1689 820 -76 10 -471 13
-547 4z"/>
</g>
</svg>
