<?xml version="1.0" standalone="no"?>
<!DOCTYPE svg PUBLIC "-//W3C//DTD SVG 20010904//EN"
 "http://www.w3.org/TR/2001/REC-SVG-20010904/DTD/svg10.dtd">
<svg version="1.0" xmlns="http://www.w3.org/2000/svg"
 width="3000.000000pt" height="882.000000pt" viewBox="0 0 3000.000000 882.000000"
 preserveAspectRatio="xMidYMid meet">

<g transform="translate(0.000000,882.000000) scale(0.100000,-0.100000)"
fill="#000000" stroke="none">
<path d="M7880 7915 l0 -894 -87 62 c-299 214 -669 400 -1023 515 -322 104
-650 169 -970 190 -178 12 -607 -3 -771 -26 -502 -72 -964 -226 -1384 -461
-900 -504 -1566 -1347 -1845 -2334 -39 -141 -83 -330 -95 -417 -4 -25 -13 -87
-20 -138 -29 -193 -40 -497 -26 -725 7 -117 19 -252 26 -302 8 -49 16 -110 20
-135 10 -73 51 -257 85 -380 287 -1057 1021 -1954 2000 -2446 420 -211 856
-340 1347 -399 73 -8 217 -12 448 -10 309 2 355 5 505 28 91 14 199 33 240 42
712 151 1337 472 1861 957 l127 118 1000 0 1000 0 7 -212 c3 -117 5 -334 3
-483 l-3 -270 -500 -5 -501 -5 -82 -75 -82 -75 855 -3 c470 -1 1240 -1 1711 0
l856 3 -86 77 -87 78 -494 0 -495 0 0 485 0 485 1220 0 1220 0 0 3825 0 3825
-2990 0 -2990 0 0 -895z m5910 -2925 l0 -3760 -1194 0 c-1160 0 -1194 -1
-1217 -19 l-24 -19 0 -512 0 -512 24 -19 c22 -18 45 -19 496 -19 457 0 535 -5
535 -31 0 -5 -629 -9 -1535 -9 -874 0 -1535 4 -1535 9 0 28 38 30 511 31 455
0 486 1 509 19 l25 18 3 479 c1 263 0 493 -3 510 -3 17 -12 39 -19 50 -14 18
-42 19 -997 24 l-982 5 101 114 100 115 2074 -2 c1140 -1 2246 -5 2458 -9 418
-6 447 -4 469 43 8 19 11 912 11 3518 l0 3493 -21 27 -20 26 -2694 0 c-2636 0
-2693 0 -2716 -19 l-24 -19 -5 -845 -5 -845 -82 67 -83 66 0 893 0 892 2920 0
2920 0 0 -3760z m-260 20 l0 -3491 -2432 7 c-1338 3 -2436 9 -2440 13 -4 4 23
49 60 101 114 160 202 306 303 507 171 338 275 642 350 1020 l22 113 210 0
c195 0 212 1 243 21 41 25 42 31 8 58 -25 20 -39 21 -237 21 l-210 0 8 72 c3
40 9 76 11 80 3 5 93 8 201 8 166 0 199 3 224 17 16 10 29 20 29 24 0 4 -14
19 -31 33 l-31 27 -189 -1 -189 -2 -4 299 c-5 386 -36 623 -127 963 -173 655
-505 1239 -981 1726 l-148 151 0 855 c0 470 3 858 7 861 3 4 1207 7 2675 7
l2668 0 0 -3490z m-7685 2690 c184 -16 215 -20 344 -41 247 -41 506 -114 766
-216 882 -347 1632 -1051 2038 -1913 243 -518 360 -1044 361 -1625 0 -339 -28
-586 -105 -904 -130 -540 -380 -1049 -731 -1489 -130 -162 -417 -449 -578
-578 -575 -458 -1223 -732 -1945 -820 -204 -25 -586 -29 -790 -10 -556 54
-1063 211 -1530 474 -136 76 -384 244 -520 353 -168 134 -441 407 -579 579
-429 536 -696 1148 -802 1840 -23 152 -28 215 -32 474 -3 189 0 346 8 425 102
1094 658 2074 1545 2729 211 156 541 342 780 442 339 141 746 242 1100 275
173 15 523 18 670 5z"/>
<path d="M8932 8155 l3 -85 1125 0 1125 0 3 85 3 85 -1131 0 -1131 0 3 -85z"/>
<path d="M8930 7955 l0 -25 925 0 925 0 0 25 0 25 -925 0 -925 0 0 -25z"/>
<path d="M8670 7780 c0 -20 4 -20 2198 -18 1945 3 2197 5 2197 18 0 13 -252
15 -2197 18 -2194 2 -2198 2 -2198 -18z"/>
<path d="M9021 7522 l-34 -28 28 -22 c27 -21 35 -22 286 -22 255 0 258 0 285
23 l27 23 -33 27 -32 27 -247 0 -247 0 -33 -28z"/>
<path d="M9296 7329 c-34 -26 -33 -41 3 -62 25 -15 61 -17 279 -17 l251 0 28
25 28 25 -30 25 -30 25 -251 0 c-239 0 -253 -1 -278 -21z"/>
<path d="M9503 7135 l-28 -25 30 -25 30 -25 250 0 250 0 30 25 30 25 -28 25
-28 25 -254 0 -254 0 -28 -25z"/>
<path d="M9514 6948 c-16 -12 -31 -23 -34 -25 -2 -2 9 -15 25 -28 30 -24 30
-24 285 -25 l255 0 30 25 30 24 -30 25 -30 25 -251 1 c-243 0 -252 -1 -280
-22z"/>
<path d="M10211 6951 c-30 -23 -23 -44 19 -66 26 -14 67 -16 275 -13 242 3
244 3 269 27 l26 25 -22 23 c-21 23 -22 23 -282 23 -238 0 -263 -2 -285 -19z"/>
<path d="M10893 6946 l-28 -24 25 -21 c23 -19 38 -20 221 -21 185 0 198 1 223
21 l27 21 -22 24 c-22 24 -25 24 -220 24 -194 0 -198 0 -226 -24z"/>
<path d="M11435 6948 l-28 -22 34 -28 33 -28 246 0 246 0 33 28 34 28 -28 22
c-27 21 -35 22 -285 22 -250 0 -258 -1 -285 -22z"/>
<path d="M12091 6946 l-22 -23 31 -27 32 -26 247 0 247 0 33 28 34 28 -28 22
c-27 21 -35 22 -290 22 l-262 0 -22 -24z"/>
<path d="M9513 6755 l-28 -25 30 -25 30 -25 250 0 c249 0 250 0 280 24 l30 24
-24 26 -24 26 -258 0 -258 0 -28 -25z"/>
<path d="M9513 6565 l-28 -25 28 -25 28 -25 254 0 254 0 28 25 28 25 -28 25
-28 25 -254 0 -254 0 -28 -25z"/>
<path d="M10215 6558 l-27 -21 23 -18 c23 -18 79 -19 1200 -19 1162 0 1177 0
1200 20 l24 20 -24 20 c-23 20 -38 20 -1196 20 l-1172 0 -28 -22z"/>
<path d="M9533 6383 c-18 -9 -33 -20 -33 -25 0 -4 16 -15 36 -23 54 -22 3016
-23 3069 -1 19 8 35 19 35 24 0 4 -16 16 -35 25 -33 16 -149 17 -1538 16
-1363 0 -1505 -2 -1534 -16z"/>
<path d="M9538 6212 c-21 -9 -38 -20 -38 -24 0 -4 13 -14 30 -23 26 -13 205
-15 1540 -15 1335 0 1514 2 1540 15 17 9 30 19 30 23 0 4 -16 15 -36 25 -33
16 -126 17 -1532 16 -1381 0 -1500 -1 -1534 -17z"/>
<path d="M9527 6048 l-28 -21 28 -18 c27 -18 79 -19 1361 -19 1242 0 1336 1
1363 17 16 10 29 20 29 23 0 3 -13 13 -29 23 -27 16 -120 17 -1363 17 l-1333
-1 -28 -21z"/>
<path d="M9510 5885 l-24 -26 29 -24 c30 -24 31 -24 280 -25 249 0 250 0 280
24 l30 24 -24 26 -24 26 -262 0 -262 0 -23 -25z"/>
<path d="M9533 5695 l-28 -25 30 -25 30 -25 252 0 252 0 28 25 28 25 -28 25
-28 25 -254 0 -254 0 -28 -25z"/>
<path d="M9293 5485 l-28 -25 28 -25 28 -25 254 0 254 0 28 25 28 25 -30 25
-30 25 -252 0 -252 0 -28 -25z"/>
<path d="M9993 5490 c-40 -24 -41 -32 -7 -59 26 -20 37 -21 438 -21 l411 1 28
23 29 23 -32 26 -32 27 -401 0 c-383 0 -404 -1 -434 -20z"/>
<path d="M10992 5484 c-29 -20 -28 -26 7 -47 27 -16 82 -17 661 -17 628 0 632
0 662 21 l30 22 -29 18 c-27 18 -60 19 -668 19 -564 0 -643 -2 -663 -16z"/>
<path d="M11017 5251 l-28 -18 27 -22 c27 -21 29 -21 667 -21 641 0 641 0 663
21 l23 22 -23 18 c-23 18 -55 19 -663 19 -605 0 -639 -1 -666 -19z"/>
<path d="M9992 5244 c-29 -20 -28 -38 3 -58 21 -14 74 -16 435 -16 361 0 414
2 435 16 14 9 25 22 25 29 0 7 -11 20 -25 29 -21 14 -74 16 -437 16 -358 0
-417 -2 -436 -16z"/>
<path d="M9284 5227 l-26 -23 39 -27 39 -27 242 0 242 0 32 29 33 29 -25 21
c-24 19 -37 20 -287 21 -259 0 -262 0 -289 -23z"/>
<path d="M10243 5020 c-40 -24 -41 -32 -7 -59 26 -21 34 -21 675 -21 l648 0
28 25 28 25 -30 25 -30 25 -640 0 c-620 0 -641 -1 -672 -20z"/>
<path d="M9535 5005 l-30 -25 28 -25 28 -25 254 0 254 0 28 25 28 25 -28 25
-28 25 -252 0 -252 0 -30 -25z"/>
<path d="M11730 4999 l-25 -21 24 -19 c21 -18 42 -19 270 -19 226 0 248 2 271
19 l24 19 -24 21 c-24 19 -38 20 -270 20 -233 0 -246 -1 -270 -20z"/>
<path d="M9543 4819 c-39 -25 -40 -29 -10 -57 23 -21 30 -22 283 -22 256 0
259 0 288 23 l29 24 -35 26 -35 27 -244 0 c-230 0 -246 -2 -276 -21z"/>
<path d="M10260 4800 l-25 -20 25 -20 c25 -19 45 -20 1166 -20 1127 0 1142 0
1165 20 l24 20 -24 20 c-23 20 -38 20 -1165 20 -1121 0 -1141 -1 -1166 -20z"/>
<path d="M9551 4586 l-22 -23 31 -27 32 -26 239 0 c247 0 275 4 308 43 10 12
7 19 -15 36 -26 20 -38 21 -289 21 l-262 0 -22 -24z"/>
<path d="M10246 4589 c-22 -17 -25 -24 -15 -36 36 -42 51 -43 464 -43 l395 1
30 26 31 26 -22 23 -22 24 -417 0 c-409 0 -418 0 -444 -21z"/>
<path d="M11260 4590 l-25 -20 25 -20 c24 -19 43 -20 661 -20 l636 0 28 22 28
22 -23 18 c-21 17 -58 18 -664 18 -623 0 -642 -1 -666 -20z"/>
<path d="M10256 4349 c-14 -11 -26 -23 -26 -27 0 -4 15 -17 33 -29 33 -23 35
-23 434 -23 l401 0 32 27 33 27 -29 23 -29 23 -411 0 c-401 0 -412 -1 -438
-21z"/>
<path d="M11269 4354 c-11 -14 -10 -19 10 -35 22 -18 51 -19 662 -19 575 0
642 2 665 16 23 16 24 18 8 35 -16 18 -46 19 -674 19 -593 0 -659 -2 -671 -16z"/>
<path d="M9556 4339 c-34 -27 -33 -33 8 -58 31 -20 48 -21 278 -21 233 0 247
1 272 21 32 25 33 35 4 60 -21 17 -44 18 -279 19 -244 0 -258 -1 -283 -21z"/>
<path d="M9556 4149 c-34 -27 -33 -33 8 -58 31 -20 48 -21 278 -21 233 0 247
1 272 21 32 25 33 35 4 60 -21 17 -44 18 -279 19 -244 0 -258 -1 -283 -21z"/>
<path d="M10246 4147 l-29 -23 33 -27 32 -27 401 0 c383 0 404 1 435 20 39 24
40 32 6 59 -26 20 -37 21 -438 21 l-411 0 -29 -23z"/>
<path d="M11268 4154 c-33 -17 -34 -25 -10 -48 17 -15 75 -16 662 -16 582 0
645 1 668 16 l26 17 -30 23 -29 24 -630 0 c-539 -1 -634 -3 -657 -16z"/>
<path d="M11285 3915 l-30 -25 25 -20 c24 -19 41 -20 660 -20 l635 0 29 23 29
24 -31 21 -30 22 -629 0 -628 0 -30 -25z"/>
<path d="M10263 3909 c-18 -12 -33 -25 -33 -29 0 -5 13 -18 29 -29 28 -20 41
-21 436 -21 395 0 408 1 436 21 16 11 29 24 29 29 0 5 -15 18 -34 29 -32 20
-45 21 -432 21 -387 0 -400 -1 -431 -21z"/>
<path d="M9563 3899 c-18 -12 -33 -25 -33 -29 0 -5 13 -18 29 -29 28 -20 42
-21 276 -21 215 0 251 2 276 17 36 21 37 36 3 62 -25 20 -39 21 -273 21 -232
0 -248 -2 -278 -21z"/>
<path d="M9981 3606 l-22 -24 27 -21 c26 -21 34 -21 438 -21 l411 0 29 23 29
23 -28 22 c-27 22 -31 22 -445 22 l-417 0 -22 -24z"/>
<path d="M10990 3610 c-14 -10 -23 -20 -20 -23 47 -38 26 -37 691 -37 634 0
636 0 663 21 l27 22 -28 18 c-27 18 -60 19 -668 19 -614 0 -641 -1 -665 -20z"/>
<path d="M11017 3382 l-27 -18 23 -22 23 -22 643 0 c611 0 644 1 666 19 l24
18 -29 22 c-29 21 -30 21 -662 21 -595 0 -635 -1 -661 -18z"/>
<path d="M9992 3367 c-29 -30 -28 -34 11 -57 30 -19 51 -20 427 -20 376 0 397
1 428 20 38 23 39 30 9 58 -23 22 -26 22 -438 22 l-416 0 -21 -23z"/>
<path d="M10232 3137 l-22 -23 23 -22 23 -22 655 0 656 0 23 25 23 24 -24 20
c-23 20 -39 20 -680 21 l-656 0 -21 -23z"/>
<path d="M9533 3133 c-30 -20 -29 -37 2 -57 21 -14 61 -16 280 -16 219 0 259
2 280 16 14 9 25 22 25 29 0 7 -11 20 -25 29 -36 24 -528 23 -562 -1z"/>
<path d="M11731 3123 l-24 -16 23 -19 c20 -16 44 -18 267 -18 205 0 249 3 275
16 l31 16 -24 19 c-22 17 -46 19 -274 19 -218 0 -254 -2 -274 -17z"/>
<path d="M9536 2939 c-34 -27 -33 -33 8 -58 31 -20 48 -21 276 -21 229 0 244
1 271 21 35 25 37 42 4 63 -21 14 -61 16 -278 16 -242 0 -256 -1 -281 -21z"/>
<path d="M10260 2930 l-25 -20 25 -20 c25 -19 45 -20 1166 -20 1127 0 1142 0
1165 20 l24 20 -24 20 c-23 20 -38 20 -1165 20 -1121 0 -1141 -1 -1166 -20z"/>
<path d="M10233 2725 l-28 -25 30 -25 30 -25 645 0 645 0 30 25 30 25 -28 25
-28 25 -649 0 -649 0 -28 -25z"/>
<path d="M9533 2715 l-28 -25 30 -25 30 -25 252 0 252 0 28 25 28 25 -28 25
-28 25 -254 0 -254 0 -28 -25z"/>
<path d="M11732 2714 c-29 -20 -28 -30 8 -49 23 -12 73 -15 260 -15 187 0 237
3 260 15 36 19 37 28 5 49 -36 24 -499 24 -533 0z"/>
<path d="M9513 2505 l-28 -25 28 -25 28 -25 254 0 254 0 28 25 28 25 -28 25
-28 25 -254 0 -254 0 -28 -25z"/>
<path d="M10245 2518 c-11 -6 -31 -17 -44 -26 l-25 -15 45 -23 c44 -23 47 -23
408 -24 350 0 366 1 408 21 24 11 43 24 43 27 0 4 -18 17 -40 30 -38 22 -43
22 -407 22 -247 -1 -375 -4 -388 -12z"/>
<path d="M11177 2501 l-28 -19 27 -21 c27 -21 28 -21 718 -21 675 0 692 1 716
20 l25 20 -24 20 c-23 20 -39 20 -715 19 -648 0 -693 -2 -719 -18z"/>
<path d="M9531 2319 l-34 -21 30 -19 c29 -19 69 -19 1542 -19 1413 0 1515 1
1542 17 16 10 29 20 29 23 0 4 -16 14 -35 23 -33 16 -150 17 -1538 17 l-1502
0 -34 -21z"/>
<path d="M9532 2149 l-33 -22 35 -23 35 -24 1504 0 1503 0 33 24 33 25 -33 20
c-34 21 -39 21 -1539 21 l-1505 0 -33 -21z"/>
<path d="M9526 1978 l-40 -20 25 -19 c45 -35 89 -39 437 -39 328 0 344 1 387
21 25 12 48 25 50 30 3 4 -12 17 -34 29 -38 19 -57 20 -413 20 -357 -1 -375
-2 -412 -22z"/>
<path d="M10492 1977 c-29 -30 -28 -34 11 -57 30 -18 50 -20 272 -20 222 0
242 2 273 20 38 23 40 35 10 61 -21 17 -44 18 -284 19 -260 0 -261 0 -282 -23z"/>
<path d="M3401 6097 c-13 -6 -34 -25 -45 -40 l-21 -28 -3 -2082 c-2 -1145 0
-2106 3 -2135 5 -39 14 -62 35 -85 l28 -32 2145 0 2145 0 26 24 c39 37 52 88
33 133 -9 20 -28 45 -43 55 -27 17 -111 18 -2069 21 -1901 2 -2041 3 -2052 19
-10 13 -13 438 -13 2045 0 1794 -2 2032 -15 2058 -27 53 -100 75 -154 47z"/>
<path d="M6792 5728 c-17 -17 -17 -3349 0 -3366 17 -17 419 -17 436 0 9 9 12
396 12 1679 0 917 -3 1674 -6 1683 -5 14 -34 16 -218 16 -152 0 -215 -3 -224
-12z"/>
<path d="M5907 4773 c-4 -3 -7 -543 -7 -1199 0 -1170 0 -1194 19 -1204 26 -13
376 -13 402 0 19 10 19 34 19 1195 0 651 -3 1190 -6 1199 -5 14 -34 16 -213
16 -114 0 -211 -3 -214 -7z"/>
<path d="M5007 3784 c-4 -4 -7 -326 -7 -716 l0 -708 220 0 220 0 -2 713 -3
712 -211 3 c-115 1 -213 -1 -217 -4z"/>
<path d="M4107 3034 c-4 -4 -7 -157 -7 -341 l0 -333 220 0 220 0 -2 338 -3
337 -211 3 c-115 1 -213 -1 -217 -4z"/>
<path d="M14506 6969 c-135 -20 -256 -110 -318 -236 l-33 -68 0 -2610 0 -2610
31 -65 c40 -84 100 -144 182 -183 l67 -32 1433 -3 c787 -1 1432 -6 1432 -10 0
-4 -6 -61 -14 -127 -8 -66 -18 -156 -21 -200 -4 -44 -17 -172 -30 -285 -14
-113 -25 -224 -27 -248 l-2 -42 -296 0 -297 0 -21 -23 c-18 -19 -22 -35 -22
-84 0 -104 -190 -93 1663 -93 l1626 0 15 22 c24 34 21 133 -4 158 -19 19 -33
20 -319 20 l-298 0 -7 73 c-4 39 -9 101 -12 137 -3 36 -14 144 -25 240 -33
298 -39 353 -39 408 l0 52 1198 0 1198 0 59 -92 c167 -260 421 -512 695 -691
249 -162 559 -281 875 -339 114 -20 161 -23 390 -23 208 0 281 4 365 18 429
75 782 233 1110 495 262 210 474 477 625 787 159 325 233 630 240 990 7 388
-69 733 -239 1080 -226 460 -596 830 -1061 1060 -569 282 -1220 321 -1823 110
-122 -42 -296 -123 -405 -188 -43 -26 -81 -47 -83 -47 -2 0 -4 517 -4 1149 0
1121 0 1150 -20 1214 -38 122 -146 231 -274 274 -48 17 -248 18 -3751 19
-2050 1 -3726 -2 -3759 -7z m7517 -86 c67 -31 121 -77 161 -137 69 -102 66
-35 66 -1310 0 -633 -4 -1156 -8 -1161 -13 -19 -168 -135 -180 -135 -9 0 -12
308 -12 1252 0 1150 -1 1253 -17 1270 -16 17 -147 18 -3799 18 -3424 0 -3784
-1 -3798 -16 -9 -8 -18 -25 -21 -37 -3 -12 -4 -999 -3 -2194 3 -2070 4 -2173
21 -2190 17 -17 169 -18 3417 -21 l3400 -2 0 -43 c0 -71 37 -296 69 -419 37
-141 86 -276 152 -417 27 -57 49 -106 49 -107 0 -2 -527 -4 -1170 -4 -1279 0
-1232 2 -1246 -56 -7 -27 13 -245 63 -703 21 -185 31 -249 44 -265 17 -20 26
-21 314 -24 l296 -3 -3 -32 -3 -32 -1587 -3 -1588 -2 0 35 0 35 286 0 c175 0
293 4 304 10 32 17 38 40 55 201 9 85 29 271 46 414 36 319 37 375 8 401 -20
18 -63 19 -1463 24 l-1441 5 -51 27 c-57 30 -103 78 -136 141 -21 40 -22 59
-30 372 -4 182 -7 1347 -6 2590 l3 2260 24 58 c42 101 128 179 234 213 34 10
707 12 3772 11 l3730 -2 48 -22z m-35 -1542 l2 -1274 -88 -91 c-365 -379 -578
-833 -646 -1381 -2 -22 -8 -100 -12 -172 l-7 -133 -3378 0 -3379 0 0 2165 0
2165 3753 -2 3752 -3 3 -1274z m1982 -765 c827 -142 1509 -734 1768 -1536 39
-122 69 -254 93 -415 16 -106 16 -437 0 -550 -23 -165 -72 -369 -123 -505
-297 -802 -1009 -1365 -1853 -1466 -169 -20 -463 -15 -624 11 -569 90 -1095
405 -1443 865 -109 145 -142 199 -233 385 -106 218 -161 385 -201 620 -21 123
-29 441 -15 593 37 407 192 797 452 1142 96 128 301 333 424 427 309 233 656
379 1040 437 149 23 173 24 380 20 144 -2 225 -9 335 -28z"/>
<path d="M18142 1783 c-70 -21 -144 -88 -169 -151 -21 -56 -23 -159 -4 -216
21 -60 93 -132 157 -156 110 -41 215 -18 299 63 79 77 103 173 70 284 -19 64
-89 145 -146 167 -61 25 -145 28 -207 9z m189 -76 c68 -36 103 -93 107 -175 3
-56 0 -74 -20 -112 -35 -65 -93 -103 -167 -108 -99 -7 -160 23 -207 104 -64
108 -12 256 106 303 47 19 133 13 181 -12z"/>
<path d="M16203 6255 l-28 -25 28 -25 28 -25 252 0 252 0 30 25 30 25 -28 25
-28 25 -254 0 -254 0 -28 -25z"/>
<path d="M16476 6059 c-34 -27 -33 -33 8 -58 31 -20 48 -21 276 -21 229 0 244
1 271 21 35 25 36 35 7 60 -21 17 -44 18 -279 19 -244 0 -258 -1 -283 -21z"/>
<path d="M16690 5873 l-33 -27 27 -23 c27 -23 30 -23 285 -23 251 0 259 1 286
22 l28 22 -34 28 -33 28 -247 0 -247 0 -32 -27z"/>
<path d="M17403 5690 c-40 -24 -41 -32 -7 -59 25 -20 39 -21 280 -21 l253 0
28 25 28 25 -28 25 -28 25 -247 0 c-229 0 -249 -2 -279 -20z"/>
<path d="M18625 5685 l-30 -25 28 -25 28 -25 254 0 254 0 28 25 28 25 -30 25
-30 25 -250 0 -250 0 -30 -25z"/>
<path d="M19280 5683 l-32 -26 29 -23 c28 -23 32 -23 285 -24 l257 0 28 25 28
24 -30 25 -30 25 -252 1 -251 0 -32 -27z"/>
<path d="M16693 5681 c-31 -26 -29 -38 10 -61 29 -18 50 -20 271 -20 224 0
241 1 272 21 40 25 41 29 11 57 -23 21 -30 22 -283 22 -238 -1 -261 -2 -281
-19z"/>
<path d="M18075 5678 l-28 -22 23 -18 c20 -16 44 -18 225 -18 184 0 205 2 226
19 23 19 24 19 5 40 -18 20 -29 21 -221 21 -193 0 -204 -1 -230 -22z"/>
<path d="M16700 5493 l-33 -27 27 -23 c27 -23 30 -23 284 -23 253 0 257 0 286
23 l29 23 -33 27 -32 27 -248 0 -248 0 -32 -27z"/>
<path d="M16694 5297 l-27 -23 33 -27 32 -27 247 0 247 0 33 28 34 28 -28 22
c-27 21 -35 22 -286 22 -255 0 -258 0 -285 -23z"/>
<path d="M17399 5294 l-24 -25 25 -19 c24 -19 59 -20 1195 -20 l1170 0 29 23
29 23 -28 22 -28 22 -1172 0 -1172 0 -24 -26z"/>
<path d="M16716 5116 l-40 -24 42 -21 41 -21 1495 0 c1382 0 1498 1 1531 17
19 9 35 20 35 25 0 5 -15 17 -32 28 -33 20 -55 20 -1533 20 l-1500 0 -39 -24z"/>
<path d="M16707 4941 l-28 -18 36 -22 36 -21 1499 0 c1385 0 1502 1 1535 17
42 20 43 26 10 47 -22 15 -161 16 -1542 15 -1443 0 -1519 -1 -1546 -18z"/>
<path d="M16702 4780 l-22 -19 22 -15 c20 -14 161 -16 1368 -16 1233 0 1348 1
1369 16 l24 17 -24 18 c-23 18 -81 19 -1369 18 -1305 0 -1346 0 -1368 -19z"/>
<path d="M16700 4623 l-33 -27 27 -23 c27 -23 30 -23 284 -23 253 0 257 0 286
23 l29 23 -33 27 -32 27 -248 0 -248 0 -32 -27z"/>
<path d="M16716 4429 c-29 -23 -27 -33 14 -57 24 -15 56 -16 282 -12 237 5
258 6 278 25 l22 20 -27 22 c-26 23 -30 23 -284 23 -246 0 -260 -1 -285 -21z"/>
<path d="M16476 4219 c-34 -27 -33 -35 7 -59 30 -18 50 -20 275 -20 231 0 246
1 273 21 35 25 36 35 7 60 -21 17 -44 18 -279 19 -244 0 -258 -1 -283 -21z"/>
<path d="M17166 4217 l-29 -23 33 -27 32 -27 401 0 c399 0 401 0 434 23 18 12
33 25 33 29 0 4 -12 16 -26 27 -26 20 -37 21 -438 21 l-411 0 -29 -23z"/>
<path d="M18180 4220 l-25 -20 28 -25 28 -25 632 0 632 0 29 23 29 23 -28 22
-28 22 -636 0 c-620 0 -637 -1 -661 -20z"/>
<path d="M18205 3988 l-28 -22 27 -23 27 -23 631 0 630 0 28 24 28 23 -28 22
c-29 21 -32 21 -658 21 l-629 0 -28 -22z"/>
<path d="M17175 3975 l-30 -25 30 -25 30 -25 404 0 c392 0 405 1 437 21 19 11
34 23 34 25 0 3 -12 16 -27 29 l-28 24 -410 1 -410 0 -30 -25z"/>
<path d="M16475 3965 l-30 -25 30 -25 30 -25 252 0 252 0 28 25 28 25 -28 25
-28 25 -252 0 -252 0 -30 -25z"/>
<path d="M17416 3747 l-29 -23 33 -27 32 -27 640 0 641 0 35 26 34 27 -28 23
-29 23 -650 1 -650 0 -29 -23z"/>
<path d="M16715 3736 c-16 -13 -28 -26 -25 -28 62 -51 45 -48 311 -48 l247 0
32 27 33 27 -29 23 c-29 23 -33 23 -284 23 -254 0 -255 0 -285 -24z"/>
<path d="M18910 3732 l-23 -18 28 -22 c27 -21 36 -22 263 -22 221 0 237 1 268
21 l34 21 -24 19 c-22 18 -43 19 -274 19 -227 0 -252 -2 -272 -18z"/>
<path d="M16718 3547 c-16 -13 -28 -26 -28 -29 0 -4 15 -16 34 -27 31 -20 48
-21 276 -21 228 0 245 1 276 21 19 11 34 24 34 29 0 5 -13 18 -29 29 -28 20
-42 21 -283 21 -247 -1 -254 -1 -280 -23z"/>
<path d="M17441 3534 l-24 -17 24 -18 c23 -18 75 -19 1170 -19 1098 0 1148 1
1169 18 l23 19 -24 16 c-22 16 -116 17 -1169 17 -1048 0 -1148 -1 -1169 -16z"/>
<path d="M16739 3322 l-32 -29 35 -21 c34 -21 46 -22 284 -22 l249 0 30 25 30
24 -30 25 -30 25 -252 1 -253 0 -31 -28z"/>
<path d="M17433 3325 l-28 -25 28 -25 28 -25 409 0 409 0 28 25 28 25 -28 25
-28 25 -409 0 -409 0 -28 -25z"/>
<path d="M18445 3328 l-28 -22 29 -23 29 -23 631 0 c630 0 631 0 659 21 l27
22 -26 23 -25 24 -634 0 -634 0 -28 -22z"/>
<path d="M17454 3091 c-46 -28 -48 -37 -15 -60 28 -20 40 -21 439 -21 399 0
410 1 436 21 34 27 33 33 -8 58 -32 20 -46 21 -427 21 -371 0 -396 -1 -425
-19z"/>
<path d="M18459 3090 l-24 -20 25 -20 c24 -19 41 -20 665 -20 624 0 641 1 665
20 l25 20 -24 20 c-23 20 -39 20 -666 20 -627 0 -643 0 -666 -20z"/>
<path d="M16741 3072 l-34 -28 30 -22 c30 -21 40 -22 286 -22 253 0 256 0 283
23 l27 23 -33 27 -32 27 -247 0 -247 0 -33 -28z"/>
<path d="M16735 2877 l-27 -22 22 -20 c20 -19 41 -20 277 -25 250 -5 270 -3
306 28 16 15 16 17 -5 39 -21 23 -22 23 -284 23 -259 0 -263 0 -289 -23z"/>
<path d="M17432 2884 c-28 -19 -28 -31 1 -55 21 -17 46 -18 435 -19 363 0 416
2 437 16 31 20 32 38 3 58 -19 14 -78 16 -438 16 -360 0 -419 -2 -438 -16z"/>
<path d="M18454 2890 c-35 -14 -39 -31 -13 -51 23 -18 58 -19 664 -19 624 0
641 1 665 20 l25 20 -24 20 c-23 20 -39 20 -660 19 -350 0 -646 -4 -657 -9z"/>
<path d="M18465 2648 l-27 -21 23 -18 c23 -18 61 -19 665 -19 626 0 642 0 665
20 l24 20 -25 20 c-24 19 -41 20 -661 20 l-636 0 -28 -22z"/>
<path d="M17436 2637 l-29 -24 35 -26 35 -27 398 0 c385 0 399 1 431 21 41 25
42 31 8 58 -26 20 -37 21 -438 21 l-411 0 -29 -23z"/>
<path d="M16736 2627 l-29 -24 35 -26 35 -27 243 0 c236 0 245 1 277 23 18 12
33 25 33 29 0 4 -12 16 -26 27 -25 20 -39 21 -283 21 -253 0 -256 0 -285 -23z"/>
<path d="M23693 3501 c-18 -11 -39 -31 -47 -43 -9 -13 -65 -266 -126 -562 -61
-296 -158 -769 -216 -1050 -111 -539 -115 -569 -75 -624 26 -37 94 -66 136
-58 44 9 92 41 109 74 8 15 105 469 216 1008 110 538 208 1014 217 1056 19 92
10 138 -37 183 -40 39 -128 47 -177 16z"/>
<path d="M22565 3280 c-19 -6 -176 -156 -452 -432 -457 -457 -456 -455 -434
-535 9 -31 88 -115 438 -465 474 -473 456 -459 548 -423 71 27 105 92 90 172
-6 33 -52 83 -363 396 l-356 357 351 353 c194 193 357 365 362 380 17 43 13
85 -10 127 -34 60 -108 90 -174 70z"/>
<path d="M24514 3279 c-41 -12 -91 -69 -100 -114 -14 -76 2 -97 371 -465 190
-190 345 -348 345 -351 0 -4 -157 -165 -349 -358 -256 -257 -353 -361 -361
-387 -36 -108 71 -217 183 -185 36 11 100 71 455 424 442 442 452 454 437 534
-6 33 -57 89 -433 466 -468 469 -460 462 -548 436z"/>
</g>
</svg>
