<?xml version="1.0" encoding="utf-8"?>
<!-- Generator: Adobe Illustrator 19.0.0, SVG Export Plug-In . SVG Version: 6.00 Build 0)  -->
<svg version="1.1" id="Layer_1" xmlns="http://www.w3.org/2000/svg" xmlns:xlink="http://www.w3.org/1999/xlink" x="0px" y="0px"
	 viewBox="12.8 51.6 556.2 313.2" style="enable-background:new 12.8 51.6 556.2 313.2;" xml:space="preserve">
<g>
	<path fill="#FEFFFF" d="M389.3,364.9c-26.1,0-46-6.5-59.7-19.6s-20.6-29.6-20.6-49.7c0-13.4,2.3-27.6,7-42.7c4.7-15.1,9.4-30.3,14-45.7
		c4.7-15.4,7-30.1,7-44.2c0-14.7-3.5-24.9-10.5-30.6s-15.2-8.5-24.6-8.5c-20.1,0-40.7,8.2-61.7,24.6c-21.1,16.4-41.5,37-61.2,61.7
		c-19.8,24.8-38.3,50.5-55.7,77.3S90.8,338.4,78,359.8c-12.7,0-24.8-2.2-36.2-6.5c-11.4-4.4-21.1-11.9-29.1-22.6
		c0.7-3.3,4.5-13.5,11.5-30.6c7-17.1,14.9-37.5,23.6-61.3c8.7-23.8,16.4-48.7,23.1-74.8c6.7-26.1,10-49.9,10-71.3
		c4.7-5.3,11.9-10.7,21.6-16.1c9.7-5.3,19.9-8,30.6-8c23.4,0,35.1,10,35.1,30.1c0,8-1.5,19.9-4.5,35.6c-3,15.7-7.2,33.6-12.5,53.7
		c17.4-23.4,36.5-45.5,57.2-66.2s42.3-37.6,64.8-50.7c22.4-13,45-19.6,67.8-19.6c28.8,0,50,9.7,63.8,29.1s20.6,40.8,20.6,64.2
		c0,20.1-3.4,38.8-10,56.2s-13.2,33.8-19.6,49.2c-6.4,15.4-9.5,30.5-9.5,45.2c0,10.7,2.5,18.2,7.5,22.6c5,4.3,10.5,6.5,16.6,6.5
		c16.1,0,32.8-7.7,50.2-23.1c17.4-15.4,34-35,49.7-58.7c15.7-23.8,29.6-47.7,41.7-71.8l17.1,14.1c-14.1,32.8-30,62.8-47.7,89.9
		c-17.8,27.1-37.5,48.9-59.2,65.2S416,364.9,389.3,364.9z"/>
</g>
</svg>
